<svg xmlns="http://www.w3.org/2000/svg" viewBox="0 0 32 32" fill="none">
  <!-- Mug body -->
  <path d="M6 10h14v14a4 4 0 01-4 4H10a4 4 0 01-4-4V10z" fill="#8B7355"/>
  <!-- Mug handle -->
  <path d="M20 12h2a4 4 0 010 8h-2" stroke="#8B7355" stroke-width="2.5" fill="none"/>
  <!-- Steam lines -->
  <path d="M9 4c0 2 2 3 2 5M13 4c0 2 2 3 2 5M17 4c0 2 2 3 2 5" stroke="#A89080" stroke-width="1.5" stroke-linecap="round"/>
  <!-- Highlight on mug -->
  <path d="M8 12v10a2 2 0 002 2h1" stroke="#A89080" stroke-width="1.5" stroke-linecap="round"/>
</svg>
